<?xml version="1.0" encoding="UTF-8" standalone="no"?>
<svg
   width="500"
   height="1000"
   version="1.1"
   id="svg2"
   sodipodi:docname="treeline.svg"
   inkscape:version="1.3 (0e150ed6c4, 2023-07-21)"
   xmlns:inkscape="http://www.inkscape.org/namespaces/inkscape"
   xmlns:sodipodi="http://sodipodi.sourceforge.net/DTD/sodipodi-0.dtd"
   xmlns="http://www.w3.org/2000/svg"
   xmlns:svg="http://www.w3.org/2000/svg">
  <sodipodi:namedview
     id="namedview2"
     pagecolor="#ffffff"
     bordercolor="#000000"
     borderopacity="0.25"
     inkscape:showpageshadow="2"
     inkscape:pageopacity="0.0"
     inkscape:pagecheckerboard="0"
     inkscape:deskcolor="#d1d1d1"
     inkscape:zoom="0.813"
     inkscape:cx="249.6925"
     inkscape:cy="500"
     inkscape:window-width="1920"
     inkscape:window-height="1009"
     inkscape:window-x="-8"
     inkscape:window-y="-8"
     inkscape:window-maximized="1"
     inkscape:current-layer="svg2" />
  <defs
     id="defs2">
    <linearGradient
       id="treelineGradient"
       x1="0%"
       y1="0%"
       x2="0%"
       y2="100%">
      <stop
         offset="0%"
         style="stop-color: #7D7192;"
         id="stop1" />
      <stop
         offset="100%"
         style="stop-color: #80A3C1;"
         id="stop2" />
    </linearGradient>
  </defs>
  <polygon
     fill="url(#treelineGradient)"
     points="0,1000 500,1000 500,295 470,300 462,295 465,295 461,290 462,290 460,285 458,290 459,290 455,295 458,295 450,300 440,300 435,295 437,295 434,292 431,295 433,295 428,300 424,294 426,294 422,285 418,294 420,294 416,300 410,300 405,290 407,290 403,280 399,290 401,290 396,300 392,300 392,292 398,292 391,288 396,288 391,284 391,280 393,280 390,278 387,280 389,280 389,284 384,288 389,288 382,292 388,292 388,300 384,300 370,290 375,290 368,275 362,285 358,280 360,280 354,267 350,272 340,268 337,262 335,264 332,259 334,259 330,255 326,259 322,250 318,259 320,259 315,265 306,264 303,258 304,258 301,250 298,258 300,258 297,264 300,264 295,268 285,268 281,258 278,262 274,252 272,259 270,254 268,265 270,265 270,268 265,265 260,264 260,261 263,261 259,252 257,255 253,245 250,249 247,240 243,255 245,255 241,260 245,260 235,263 230,250 227,258 224,253 222,258 220,256 217,265 220,265 220,267 210,275 205,265 202,269 198,260 195,269 198,269 198,272 194,271 188,267 190,267 187,260 189,260 185,253 181,260 176,245 173,252 170,242 166,250 160,248 155,247 152,239 149,245 145,245 145,242 148,242 143.5,235 143,232 148,232 142,228 136,232 141,232 140.5,235 138,237 135,232 132,238 129,235 131,235 127,228 122,235 116,221 111,228 107,215 103,222 101,217 97,225 95,220 92,229 95,229 95,231 90,233 87,235 84,230 81,237 79,233 76,242 74,237 71,245 73,245 73,248 70,249 65,252 65,250 67,250 63,242 60,249 58,246 55,256 53,250 50,260 47,255 44,263 46,263 43,267 46,267 46,268 41,270 37,272 34,265 31,275 28,269 25,278 22,273 20,280 22,280 22,282 18,285 12,289 0,300"
     id="polygon2" />
</svg>
