<svg xmlns="http://www.w3.org/2000/svg" width="400" height="400">
    <defs>
        <linearGradient id="mountainGradient" x1="0%" y1="0%" x2="50%" y2="100%">
            <stop offset="0%" style="stop-color: #A4C7E7" />
            <stop offset="100%" style="stop-color: #7B92A5" />
        </linearGradient>
        <linearGradient id="snowGradient" x1="0%" y1="0%" x2="0%" y2="100%">
            <stop offset="0%" style="stop-color: #d5eef7; stop-opacity: 1" />
            <stop offset="80%" style="stop-color: #d5eef7; stop-opacity: 0.8" />
            <stop offset="100%" style="stop-color: #ffffff; stop-opacity: 0.05" />
        </linearGradient>
    </defs>
    <polygon fill="url(#mountainGradient)" points="0,400 400,400 400,100 395,95 375,100 365,145 355,147 340,170 320,155 280,185 260,175 230,195 150,145 100,170 50,130 35,135 0,165" />
    <polygon fill="url(#snowGradient)" points="50,130 100,170 75,166 60,173" />
    <polygon fill="url(#snowGradient)" points="150,145 230,195 180,185 175,190" />
    <polygon fill="url(#snowGradient)" points="340,170 320,155 325,165 320,167 325,180" />
    <polygon fill="url(#snowGradient)" points="400,100 395,95 395,107 400,115" />
</svg>
